REM MD5 2ff61d8e8a87706a7e774b8e3bb48804
FILE "Simple 1500 Series Vol. 6 - The Hanafuda (Japan) (Culture Publishers).bin" BINARY
  TRACK 01 MODE2/2352
    INDEX 01 00:00:00
  TRACK 02 AUDIO
    INDEX 00 00:30:05
    INDEX 01 00:32:05
  TRACK 03 AUDIO
    INDEX 00 02:34:73
    INDEX 01 02:36:73
  TRACK 04 AUDIO
    INDEX 00 04:58:54
    INDEX 01 05:00:54
  TRACK 05 AUDIO
    INDEX 00 07:52:71
    INDEX 01 07:54:71
  TRACK 06 AUDIO
    INDEX 00 10:37:10
    INDEX 01 10:39:10
REM LEADOUT 13:13:30
